<?xml version="1.0" encoding="UTF-8" standalone="no"?>
<!DOCTYPE svg PUBLIC "-//W3C//DTD SVG 1.1//EN"
 "http://www.w3.org/Graphics/SVG/1.1/DTD/svg11.dtd">
<!-- Generated by graphviz version 3.0.0 (20220226.1711)
 -->
<!-- Pages: 1 -->
<svg width="999pt" height="1243pt"
 viewBox="0.00 0.00 998.88 1243.50" xmlns="http://www.w3.org/2000/svg" xmlns:xlink="http://www.w3.org/1999/xlink">
<g id="graph0" class="graph" transform="scale(1 1) rotate(0) translate(28.8 1214.7)">
<polygon fill="white" stroke="transparent" points="-28.8,28.8 -28.8,-1214.7 970.08,-1214.7 970.08,28.8 -28.8,28.8"/>
<text text-anchor="middle" x="470.64" y="-1153.1" font-family="Helvetica,sans-Serif" font-size="36.00">ddos</text>
<!-- ddos -->
<g id="node1" class="node">
<title>ddos</title>
<polygon fill="#5397c8" stroke="black" points="447.36,-707.62 447.36,-745.62 501.36,-745.62 501.36,-707.62 447.36,-707.62"/>
<text text-anchor="middle" x="474.36" y="-733.62" font-family="monospace" font-size="10.00">crate</text>
<polyline fill="none" stroke="black" points="447.36,-726.62 501.36,-726.62 "/>
<text text-anchor="middle" x="474.36" y="-714.62" font-family="monospace" font-size="10.00">ddos</text>
</g>
<!-- ddos::kdd_schema -->
<g id="node2" class="node">
<title>ddos::kdd_schema</title>
<polygon fill="#81c169" stroke="black" points="460.22,-309.63 460.22,-347.63 573.22,-347.63 573.22,-309.63 460.22,-309.63"/>
<text text-anchor="middle" x="516.72" y="-335.63" font-family="monospace" font-size="10.00">pub mod</text>
<polyline fill="none" stroke="black" points="460.22,-328.63 573.22,-328.63 "/>
<text text-anchor="middle" x="516.72" y="-316.63" font-family="monospace" font-size="10.00">ddos::kdd_schema</text>
</g>
<!-- ddos&#45;&gt;ddos::kdd_schema -->
<g id="edge1" class="edge">
<title>ddos&#45;&gt;ddos::kdd_schema</title>
<path fill="none" stroke="#000000" d="M476.4,-707.43C483.26,-643.06 505.44,-434.65 513.64,-357.61"/>
<polygon fill="#000000" stroke="#000000" points="517.12,-357.95 514.7,-347.64 510.16,-357.21 517.12,-357.95"/>
<text text-anchor="middle" x="482.52" y="-535.52" font-family="monospace" font-size="10.00">owns</text>
</g>
<!-- ddos::kdd_schema::KDDRecord -->
<g id="node3" class="node">
<title>ddos::kdd_schema::KDDRecord</title>
<polygon fill="#81c169" stroke="black" points="273.17,-352.04 273.17,-390.04 452.17,-390.04 452.17,-352.04 273.17,-352.04"/>
<text text-anchor="middle" x="362.67" y="-378.04" font-family="monospace" font-size="10.00">pub struct</text>
<polyline fill="none" stroke="black" points="273.17,-371.04 452.17,-371.04 "/>
<text text-anchor="middle" x="362.67" y="-359.04" font-family="monospace" font-size="10.00">ddos::kdd_schema::KDDRecord</text>
</g>
<!-- ddos&#45;&gt;ddos::kdd_schema::KDDRecord -->
<g id="edge35" class="edge">
<title>ddos&#45;&gt;ddos::kdd_schema::KDDRecord</title>
<path fill="none" stroke="#7f7f7f" d="M468.36,-707.5C449.87,-648.66 393.75,-469.99 371.7,-399.8"/>
<polygon fill="#7f7f7f" stroke="#7f7f7f" points="375.04,-398.75 368.7,-390.26 368.36,-400.84 375.04,-398.75"/>
<text text-anchor="middle" x="407.53" y="-556.65" font-family="monospace" font-size="10.00">uses</text>
</g>
<!-- ddos::kdd_schema::KDDRecordWithLable -->
<g id="node4" class="node">
<title>ddos::kdd_schema::KDDRecordWithLable</title>
<polygon fill="#81c169" stroke="black" points="237.59,-523.83 237.59,-561.83 470.59,-561.83 470.59,-523.83 237.59,-523.83"/>
<text text-anchor="middle" x="354.09" y="-549.83" font-family="monospace" font-size="10.00">pub struct</text>
<polyline fill="none" stroke="black" points="237.59,-542.83 470.59,-542.83 "/>
<text text-anchor="middle" x="354.09" y="-530.83" font-family="monospace" font-size="10.00">ddos::kdd_schema::KDDRecordWithLable</text>
</g>
<!-- ddos&#45;&gt;ddos::kdd_schema::KDDRecordWithLable -->
<g id="edge32" class="edge">
<title>ddos&#45;&gt;ddos::kdd_schema::KDDRecordWithLable</title>
<path fill="none" stroke="#7f7f7f" d="M461.72,-707.3C440.28,-674.53 396.72,-607.98 372.1,-570.35"/>
<polygon fill="#7f7f7f" stroke="#7f7f7f" points="374.97,-568.34 366.57,-561.89 369.11,-572.17 374.97,-568.34"/>
<text text-anchor="middle" x="404.41" y="-641.82" font-family="monospace" font-size="10.00">uses</text>
</g>
<!-- ddos::kdd_schema::Label -->
<g id="node5" class="node">
<title>ddos::kdd_schema::Label</title>
<polygon fill="#81c169" stroke="black" points="555.61,-506.41 555.61,-544.41 710.61,-544.41 710.61,-506.41 555.61,-506.41"/>
<text text-anchor="middle" x="633.11" y="-532.41" font-family="monospace" font-size="10.00">pub enum</text>
<polyline fill="none" stroke="black" points="555.61,-525.41 710.61,-525.41 "/>
<text text-anchor="middle" x="633.11" y="-513.41" font-family="monospace" font-size="10.00">ddos::kdd_schema::Label</text>
</g>
<!-- ddos&#45;&gt;ddos::kdd_schema::Label -->
<g id="edge28" class="edge">
<title>ddos&#45;&gt;ddos::kdd_schema::Label</title>
<path fill="none" stroke="#7f7f7f" d="M489.58,-707.33C517.97,-671.35 579.06,-593.92 611.63,-552.64"/>
<polygon fill="#7f7f7f" stroke="#7f7f7f" points="614.49,-554.67 617.94,-544.65 609,-550.33 614.49,-554.67"/>
<text text-anchor="middle" x="538.11" y="-632.99" font-family="monospace" font-size="10.00">uses</text>
</g>
<!-- nalgebra -->
<g id="node6" class="node">
<title>nalgebra</title>
<polygon fill="#5397c8" stroke="black" points="175.79,-474.37 175.79,-512.37 276.79,-512.37 276.79,-474.37 175.79,-474.37"/>
<text text-anchor="middle" x="226.29" y="-500.37" font-family="monospace" font-size="10.00">external crate</text>
<polyline fill="none" stroke="black" points="175.79,-493.37 276.79,-493.37 "/>
<text text-anchor="middle" x="226.29" y="-481.37" font-family="monospace" font-size="10.00">nalgebra</text>
</g>
<!-- ddos&#45;&gt;nalgebra -->
<g id="edge26" class="edge">
<title>ddos&#45;&gt;nalgebra</title>
<path fill="none" stroke="#7f7f7f" d="M454.06,-707.53C409.7,-665.83 304.09,-566.52 253.81,-519.25"/>
<polygon fill="#7f7f7f" stroke="#7f7f7f" points="256.2,-516.69 246.52,-512.39 251.41,-521.79 256.2,-516.69"/>
<text text-anchor="middle" x="341.44" y="-616.39" font-family="monospace" font-size="10.00">uses</text>
</g>
<!-- log -->
<g id="node7" class="node">
<title>log</title>
<polygon fill="#5397c8" stroke="black" points="164.13,-383.26 164.13,-421.26 265.13,-421.26 265.13,-383.26 164.13,-383.26"/>
<text text-anchor="middle" x="214.63" y="-409.26" font-family="monospace" font-size="10.00">external crate</text>
<polyline fill="none" stroke="black" points="164.13,-402.26 265.13,-402.26 "/>
<text text-anchor="middle" x="214.63" y="-390.26" font-family="monospace" font-size="10.00">log</text>
</g>
<!-- ddos&#45;&gt;log -->
<g id="edge25" class="edge">
<title>ddos&#45;&gt;log</title>
<path fill="none" stroke="#7f7f7f" d="M458.89,-707.3C414.68,-652.09 287.68,-493.49 236.44,-429.51"/>
<polygon fill="#7f7f7f" stroke="#7f7f7f" points="239,-427.1 230.02,-421.48 233.54,-431.47 239,-427.1"/>
<text text-anchor="middle" x="335.17" y="-571.41" font-family="monospace" font-size="10.00">uses</text>
</g>
<!-- serde -->
<g id="node8" class="node">
<title>serde</title>
<polygon fill="#5397c8" stroke="black" points="711.86,-442.62 711.86,-480.62 812.86,-480.62 812.86,-442.62 711.86,-442.62"/>
<text text-anchor="middle" x="762.36" y="-468.62" font-family="monospace" font-size="10.00">external crate</text>
<polyline fill="none" stroke="black" points="711.86,-461.62 812.86,-461.62 "/>
<text text-anchor="middle" x="762.36" y="-449.62" font-family="monospace" font-size="10.00">serde</text>
</g>
<!-- ddos&#45;&gt;serde -->
<g id="edge33" class="edge">
<title>ddos&#45;&gt;serde</title>
<path fill="none" stroke="#7f7f7f" d="M495.07,-707.56C545.7,-660.98 675.81,-541.26 733.76,-487.93"/>
<polygon fill="#7f7f7f" stroke="#7f7f7f" points="736.46,-490.21 741.45,-480.86 731.72,-485.06 736.46,-490.21"/>
<text text-anchor="middle" x="601.92" y="-600.75" font-family="monospace" font-size="10.00">uses</text>
</g>
<!-- serde_derive -->
<g id="node9" class="node">
<title>serde_derive</title>
<polygon fill="#5397c8" stroke="black" points="446.6,-471.57 446.6,-509.57 547.6,-509.57 547.6,-471.57 446.6,-471.57"/>
<text text-anchor="middle" x="497.1" y="-497.57" font-family="monospace" font-size="10.00">external crate</text>
<polyline fill="none" stroke="black" points="446.6,-490.57 547.6,-490.57 "/>
<text text-anchor="middle" x="497.1" y="-478.57" font-family="monospace" font-size="10.00">serde_derive</text>
</g>
<!-- ddos&#45;&gt;serde_derive -->
<g id="edge34" class="edge">
<title>ddos&#45;&gt;serde_derive</title>
<path fill="none" stroke="#7f7f7f" d="M476.22,-707.3C480.2,-666.05 489.53,-569.12 494.26,-520.09"/>
<polygon fill="#7f7f7f" stroke="#7f7f7f" points="497.77,-520.12 495.25,-509.83 490.8,-519.44 497.77,-520.12"/>
<text text-anchor="middle" x="472.74" y="-616.69" font-family="monospace" font-size="10.00">uses</text>
</g>
<!-- ddos::NUM_INFO_PRINTS -->
<g id="node12" class="node">
<title>ddos::NUM_INFO_PRINTS</title>
<polygon fill="#f8c04c" stroke="black" points="45.95,-770.54 45.95,-808.54 188.95,-808.54 188.95,-770.54 45.95,-770.54"/>
<text text-anchor="middle" x="117.45" y="-796.54" font-family="monospace" font-size="10.00">pub(crate) const</text>
<polyline fill="none" stroke="black" points="45.95,-789.54 188.95,-789.54 "/>
<text text-anchor="middle" x="117.45" y="-777.54" font-family="monospace" font-size="10.00">ddos::NUM_INFO_PRINTS</text>
</g>
<!-- ddos&#45;&gt;ddos::NUM_INFO_PRINTS -->
<g id="edge11" class="edge">
<title>ddos&#45;&gt;ddos::NUM_INFO_PRINTS</title>
<path fill="none" stroke="#000000" d="M447.24,-731.4C395.06,-740.6 278.81,-761.09 199.25,-775.12"/>
<polygon fill="#000000" stroke="#000000" points="198.5,-771.7 189.26,-776.88 199.71,-778.59 198.5,-771.7"/>
<text text-anchor="middle" x="310.75" y="-756.26" font-family="monospace" font-size="10.00">owns</text>
</g>
<!-- ddos::LR -->
<g id="node13" class="node">
<title>ddos::LR</title>
<polygon fill="#f8c04c" stroke="black" points="788.87,-760.23 788.87,-798.23 901.87,-798.23 901.87,-760.23 788.87,-760.23"/>
<text text-anchor="middle" x="845.37" y="-786.23" font-family="monospace" font-size="10.00">pub(crate) const</text>
<polyline fill="none" stroke="black" points="788.87,-779.23 901.87,-779.23 "/>
<text text-anchor="middle" x="845.37" y="-767.23" font-family="monospace" font-size="10.00">ddos::LR</text>
</g>
<!-- ddos&#45;&gt;ddos::LR -->
<g id="edge12" class="edge">
<title>ddos&#45;&gt;ddos::LR</title>
<path fill="none" stroke="#000000" d="M501.64,-730.49C559.55,-738.7 696.21,-758.08 778.71,-769.78"/>
<polygon fill="#000000" stroke="#000000" points="778.35,-773.26 788.74,-771.2 779.33,-766.33 778.35,-773.26"/>
<text text-anchor="middle" x="627.68" y="-753.13" font-family="monospace" font-size="10.00">owns</text>
</g>
<!-- ddos::MAX_STATS_ITEMS -->
<g id="node14" class="node">
<title>ddos::MAX_STATS_ITEMS</title>
<polygon fill="#f8c04c" stroke="black" points="761.11,-873.3 761.11,-911.3 904.11,-911.3 904.11,-873.3 761.11,-873.3"/>
<text text-anchor="middle" x="832.61" y="-899.3" font-family="monospace" font-size="10.00">pub(crate) const</text>
<polyline fill="none" stroke="black" points="761.11,-892.3 904.11,-892.3 "/>
<text text-anchor="middle" x="832.61" y="-880.3" font-family="monospace" font-size="10.00">ddos::MAX_STATS_ITEMS</text>
</g>
<!-- ddos&#45;&gt;ddos::MAX_STATS_ITEMS -->
<g id="edge13" class="edge">
<title>ddos&#45;&gt;ddos::MAX_STATS_ITEMS</title>
<path fill="none" stroke="#000000" d="M501.58,-739.21C561.4,-766.87 705.08,-833.32 781.99,-868.9"/>
<polygon fill="#000000" stroke="#000000" points="780.94,-872.26 791.48,-873.28 783.88,-865.91 780.94,-872.26"/>
<text text-anchor="middle" x="629.29" y="-807.05" font-family="monospace" font-size="10.00">owns</text>
</g>
<!-- ddos::BestNetwork -->
<g id="node15" class="node">
<title>ddos::BestNetwork</title>
<polygon fill="#f8c04c" stroke="black" points="422.21,-1099.4 422.21,-1137.4 541.21,-1137.4 541.21,-1099.4 422.21,-1099.4"/>
<text text-anchor="middle" x="481.71" y="-1125.4" font-family="monospace" font-size="10.00">pub(crate) struct</text>
<polyline fill="none" stroke="black" points="422.21,-1118.4 541.21,-1118.4 "/>
<text text-anchor="middle" x="481.71" y="-1106.4" font-family="monospace" font-size="10.00">ddos::BestNetwork</text>
</g>
<!-- ddos&#45;&gt;ddos::BestNetwork -->
<g id="edge14" class="edge">
<title>ddos&#45;&gt;ddos::BestNetwork</title>
<path fill="none" stroke="#000000" d="M474.72,-745.78C475.91,-809.18 479.73,-1012.48 481.16,-1088.94"/>
<polygon fill="#000000" stroke="#000000" points="477.67,-1089.34 481.35,-1099.27 484.67,-1089.21 477.67,-1089.34"/>
<text text-anchor="middle" x="465.44" y="-920.36" font-family="monospace" font-size="10.00">owns</text>
</g>
<!-- ddos::init_test_data -->
<g id="node16" class="node">
<title>ddos::init_test_data</title>
<polygon fill="#f8c04c" stroke="black" points="701.24,-618.89 701.24,-656.89 838.24,-656.89 838.24,-618.89 701.24,-618.89"/>
<text text-anchor="middle" x="769.74" y="-644.89" font-family="monospace" font-size="10.00">pub(crate) fn</text>
<polyline fill="none" stroke="black" points="701.24,-637.89 838.24,-637.89 "/>
<text text-anchor="middle" x="769.74" y="-625.89" font-family="monospace" font-size="10.00">ddos::init_test_data</text>
</g>
<!-- ddos&#45;&gt;ddos::init_test_data -->
<g id="edge15" class="edge">
<title>ddos&#45;&gt;ddos::init_test_data</title>
<path fill="none" stroke="#000000" d="M501.62,-718.43C545.48,-705.26 633.17,-678.91 696.34,-659.94"/>
<polygon fill="#000000" stroke="#000000" points="697.69,-663.19 706.26,-656.96 695.67,-656.48 697.69,-663.19"/>
<text text-anchor="middle" x="586.48" y="-692.18" font-family="monospace" font-size="10.00">owns</text>
</g>
<!-- ddos::example -->
<g id="node17" class="node">
<title>ddos::example</title>
<polygon fill="#f8c04c" stroke="black" points="846.28,-636.18 846.28,-674.18 941.28,-674.18 941.28,-636.18 846.28,-636.18"/>
<text text-anchor="middle" x="893.78" y="-662.18" font-family="monospace" font-size="10.00">pub(crate) fn</text>
<polyline fill="none" stroke="black" points="846.28,-655.18 941.28,-655.18 "/>
<text text-anchor="middle" x="893.78" y="-643.18" font-family="monospace" font-size="10.00">ddos::example</text>
</g>
<!-- ddos&#45;&gt;ddos::example -->
<g id="edge16" class="edge">
<title>ddos&#45;&gt;ddos::example</title>
<path fill="none" stroke="#000000" d="M501.56,-721.99C568.92,-710.51 744.67,-680.57 836.31,-664.96"/>
<polygon fill="#000000" stroke="#000000" points="836.98,-668.4 846.25,-663.27 835.81,-661.5 836.98,-668.4"/>
<text text-anchor="middle" x="656.43" y="-696.48" font-family="monospace" font-size="10.00">owns</text>
</g>
<!-- ddos::execute -->
<g id="node18" class="node">
<title>ddos::execute</title>
<polygon fill="#f8c04c" stroke="black" points="170.66,-997.76 170.66,-1035.76 265.66,-1035.76 265.66,-997.76 170.66,-997.76"/>
<text text-anchor="middle" x="218.16" y="-1023.76" font-family="monospace" font-size="10.00">pub(crate) fn</text>
<polyline fill="none" stroke="black" points="170.66,-1016.76 265.66,-1016.76 "/>
<text text-anchor="middle" x="218.16" y="-1004.76" font-family="monospace" font-size="10.00">ddos::execute</text>
</g>
<!-- ddos&#45;&gt;ddos::execute -->
<g id="edge17" class="edge">
<title>ddos&#45;&gt;ddos::execute</title>
<path fill="none" stroke="#000000" d="M457.55,-745.66C413.21,-795.87 293,-932 241.78,-990.01"/>
<polygon fill="#000000" stroke="#000000" points="239.03,-987.84 235.03,-997.66 244.27,-992.48 239.03,-987.84"/>
<text text-anchor="middle" x="337.17" y="-870.83" font-family="monospace" font-size="10.00">owns</text>
</g>
<!-- ddos::KDDSchemaReader -->
<g id="node19" class="node">
<title>ddos::KDDSchemaReader</title>
<polygon fill="#f8c04c" stroke="black" points="50.19,-895.41 50.19,-933.41 193.19,-933.41 193.19,-895.41 50.19,-895.41"/>
<text text-anchor="middle" x="121.69" y="-921.41" font-family="monospace" font-size="10.00">pub(crate) struct</text>
<polyline fill="none" stroke="black" points="50.19,-914.41 193.19,-914.41 "/>
<text text-anchor="middle" x="121.69" y="-902.41" font-family="monospace" font-size="10.00">ddos::KDDSchemaReader</text>
</g>
<!-- ddos&#45;&gt;ddos::KDDSchemaReader -->
<g id="edge18" class="edge">
<title>ddos&#45;&gt;ddos::KDDSchemaReader</title>
<path fill="none" stroke="#000000" d="M447.27,-741.05C386.95,-773.17 241.02,-850.87 166.75,-890.42"/>
<polygon fill="#000000" stroke="#000000" points="164.8,-887.49 157.62,-895.28 168.09,-893.67 164.8,-887.49"/>
<text text-anchor="middle" x="294.51" y="-818.73" font-family="monospace" font-size="10.00">owns</text>
</g>
<!-- ddos::main -->
<g id="node20" class="node">
<title>ddos::main</title>
<polygon fill="#f8c04c" stroke="black" points="208.12,-826.6 208.12,-864.6 303.12,-864.6 303.12,-826.6 208.12,-826.6"/>
<text text-anchor="middle" x="255.62" y="-852.6" font-family="monospace" font-size="10.00">pub(crate) fn</text>
<polyline fill="none" stroke="black" points="208.12,-845.6 303.12,-845.6 "/>
<text text-anchor="middle" x="255.62" y="-833.6" font-family="monospace" font-size="10.00">ddos::main</text>
</g>
<!-- ddos&#45;&gt;ddos::main -->
<g id="edge19" class="edge">
<title>ddos&#45;&gt;ddos::main</title>
<path fill="none" stroke="#000000" d="M447.1,-741.45C410.21,-761.51 343.96,-797.55 299.88,-821.52"/>
<polygon fill="#000000" stroke="#000000" points="297.95,-818.59 290.83,-826.44 301.29,-824.74 297.95,-818.59"/>
<text text-anchor="middle" x="360.99" y="-784.49" font-family="monospace" font-size="10.00">owns</text>
</g>
<!-- ddos::statis_custom -->
<g id="node21" class="node">
<title>ddos::statis_custom</title>
<polygon fill="#f8c04c" stroke="black" points="604.06,-838.62 604.06,-876.62 735.06,-876.62 735.06,-838.62 604.06,-838.62"/>
<text text-anchor="middle" x="669.56" y="-864.62" font-family="monospace" font-size="10.00">pub(crate) fn</text>
<polyline fill="none" stroke="black" points="604.06,-857.62 735.06,-857.62 "/>
<text text-anchor="middle" x="669.56" y="-845.62" font-family="monospace" font-size="10.00">ddos::statis_custom</text>
</g>
<!-- ddos&#45;&gt;ddos::statis_custom -->
<g id="edge20" class="edge">
<title>ddos&#45;&gt;ddos::statis_custom</title>
<path fill="none" stroke="#000000" d="M501.5,-744.84C535.54,-767.68 594.07,-806.96 632.29,-832.6"/>
<polygon fill="#000000" stroke="#000000" points="630.81,-835.83 641.06,-838.49 634.71,-830.02 630.81,-835.83"/>
<text text-anchor="middle" x="554.39" y="-791.72" font-family="monospace" font-size="10.00">owns</text>
</g>
<!-- ddos::print_statis_custom -->
<g id="node22" class="node">
<title>ddos::print_statis_custom</title>
<polygon fill="#f8c04c" stroke="black" points="0,-674.08 0,-712.08 167,-712.08 167,-674.08 0,-674.08"/>
<text text-anchor="middle" x="83.5" y="-700.08" font-family="monospace" font-size="10.00">pub(crate) fn</text>
<polyline fill="none" stroke="black" points="0,-693.08 167,-693.08 "/>
<text text-anchor="middle" x="83.5" y="-681.08" font-family="monospace" font-size="10.00">ddos::print_statis_custom</text>
</g>
<!-- ddos&#45;&gt;ddos::print_statis_custom -->
<g id="edge21" class="edge">
<title>ddos&#45;&gt;ddos::print_statis_custom</title>
<path fill="none" stroke="#000000" d="M447.19,-724.29C392.18,-719.57 265.37,-708.69 177.07,-701.11"/>
<polygon fill="#000000" stroke="#000000" points="177.3,-697.62 167.04,-700.25 176.7,-704.59 177.3,-697.62"/>
<text text-anchor="middle" x="299.63" y="-715.7" font-family="monospace" font-size="10.00">owns</text>
</g>
<!-- ddos::Args -->
<g id="node23" class="node">
<title>ddos::Args</title>
<polygon fill="#f8c04c" stroke="black" points="497.72,-982.78 497.72,-1020.78 604.72,-1020.78 604.72,-982.78 497.72,-982.78"/>
<text text-anchor="middle" x="551.22" y="-1008.78" font-family="monospace" font-size="10.00">pub(crate) enum</text>
<polyline fill="none" stroke="black" points="497.72,-1001.78 604.72,-1001.78 "/>
<text text-anchor="middle" x="551.22" y="-989.78" font-family="monospace" font-size="10.00">ddos::Args</text>
</g>
<!-- ddos&#45;&gt;ddos::Args -->
<g id="edge22" class="edge">
<title>ddos&#45;&gt;ddos::Args</title>
<path fill="none" stroke="#000000" d="M479.77,-745.97C493.05,-793.53 527.36,-916.37 543.11,-972.74"/>
<polygon fill="#000000" stroke="#000000" points="539.76,-973.77 545.82,-982.46 546.5,-971.88 539.76,-973.77"/>
<text text-anchor="middle" x="498.94" y="-862.35" font-family="monospace" font-size="10.00">owns</text>
</g>
<!-- ddos::RBFNetwork -->
<g id="node24" class="node">
<title>ddos::RBFNetwork</title>
<polygon fill="#f8c04c" stroke="black" points="589.55,-1060.62 589.55,-1098.62 708.55,-1098.62 708.55,-1060.62 589.55,-1060.62"/>
<text text-anchor="middle" x="649.05" y="-1086.62" font-family="monospace" font-size="10.00">pub(crate) struct</text>
<polyline fill="none" stroke="black" points="589.55,-1079.62 708.55,-1079.62 "/>
<text text-anchor="middle" x="649.05" y="-1067.62" font-family="monospace" font-size="10.00">ddos::RBFNetwork</text>
</g>
<!-- ddos&#45;&gt;ddos::RBFNetwork -->
<g id="edge23" class="edge">
<title>ddos&#45;&gt;ddos::RBFNetwork</title>
<path fill="none" stroke="#000000" d="M483.88,-745.85C512.98,-804.66 600.9,-982.32 635.17,-1051.57"/>
<polygon fill="#000000" stroke="#000000" points="632.06,-1053.18 639.63,-1060.59 638.34,-1050.08 632.06,-1053.18"/>
<text text-anchor="middle" x="547.02" y="-901.71" font-family="monospace" font-size="10.00">owns</text>
</g>
<!-- rand_core -->
<g id="node25" class="node">
<title>rand_core</title>
<polygon fill="#5397c8" stroke="black" points="286.11,-1072.96 286.11,-1110.96 387.11,-1110.96 387.11,-1072.96 286.11,-1072.96"/>
<text text-anchor="middle" x="336.61" y="-1098.96" font-family="monospace" font-size="10.00">external crate</text>
<polyline fill="none" stroke="black" points="286.11,-1091.96 387.11,-1091.96 "/>
<text text-anchor="middle" x="336.61" y="-1079.96" font-family="monospace" font-size="10.00">rand_core</text>
</g>
<!-- ddos&#45;&gt;rand_core -->
<g id="edge24" class="edge">
<title>ddos&#45;&gt;rand_core</title>
<path fill="none" stroke="#7f7f7f" d="M467.15,-745.75C444.51,-805.78 374.77,-990.74 347.6,-1062.79"/>
<polygon fill="#7f7f7f" stroke="#7f7f7f" points="344.17,-1061.99 343.91,-1072.58 350.72,-1064.46 344.17,-1061.99"/>
<text text-anchor="middle" x="394.88" y="-907.27" font-family="monospace" font-size="10.00">uses</text>
</g>
<!-- flate2 -->
<g id="node26" class="node">
<title>flate2</title>
<polygon fill="#5397c8" stroke="black" points="639.15,-390.26 639.15,-428.26 740.15,-428.26 740.15,-390.26 639.15,-390.26"/>
<text text-anchor="middle" x="689.65" y="-416.26" font-family="monospace" font-size="10.00">external crate</text>
<polyline fill="none" stroke="black" points="639.15,-409.26 740.15,-409.26 "/>
<text text-anchor="middle" x="689.65" y="-397.26" font-family="monospace" font-size="10.00">flate2</text>
</g>
<!-- ddos&#45;&gt;flate2 -->
<g id="edge27" class="edge">
<title>ddos&#45;&gt;flate2</title>
<path fill="none" stroke="#7f7f7f" d="M487.5,-707.25C524.22,-653.12 628,-500.13 670.82,-437.02"/>
<polygon fill="#7f7f7f" stroke="#7f7f7f" points="673.96,-438.62 676.68,-428.38 668.16,-434.69 673.96,-438.62"/>
<text text-anchor="middle" x="566.66" y="-575.13" font-family="monospace" font-size="10.00">uses</text>
</g>
<!-- clap -->
<g id="node27" class="node">
<title>clap</title>
<polygon fill="#5397c8" stroke="black" points="702.94,-976.07 702.94,-1014.07 803.94,-1014.07 803.94,-976.07 702.94,-976.07"/>
<text text-anchor="middle" x="753.44" y="-1002.07" font-family="monospace" font-size="10.00">external crate</text>
<polyline fill="none" stroke="black" points="702.94,-995.07 803.94,-995.07 "/>
<text text-anchor="middle" x="753.44" y="-983.07" font-family="monospace" font-size="10.00">clap</text>
</g>
<!-- ddos&#45;&gt;clap -->
<g id="edge29" class="edge">
<title>ddos&#45;&gt;clap</title>
<path fill="none" stroke="#7f7f7f" d="M494.43,-745.93C543.61,-793.23 670.18,-914.99 726.14,-968.81"/>
<polygon fill="#7f7f7f" stroke="#7f7f7f" points="723.92,-971.53 733.55,-975.94 728.77,-966.49 723.92,-971.53"/>
<text text-anchor="middle" x="597.79" y="-860.37" font-family="monospace" font-size="10.00">uses</text>
</g>
<!-- clap_derive -->
<g id="node28" class="node">
<title>clap_derive</title>
<polygon fill="#5397c8" stroke="black" points="335.55,-944.8 335.55,-982.8 436.55,-982.8 436.55,-944.8 335.55,-944.8"/>
<text text-anchor="middle" x="386.05" y="-970.8" font-family="monospace" font-size="10.00">external crate</text>
<polyline fill="none" stroke="black" points="335.55,-963.8 436.55,-963.8 "/>
<text text-anchor="middle" x="386.05" y="-951.8" font-family="monospace" font-size="10.00">clap_derive</text>
</g>
<!-- ddos&#45;&gt;clap_derive -->
<g id="edge30" class="edge">
<title>ddos&#45;&gt;clap_derive</title>
<path fill="none" stroke="#7f7f7f" d="M467.28,-745.63C451.81,-787.18 414.92,-886.27 396.66,-935.31"/>
<polygon fill="#7f7f7f" stroke="#7f7f7f" points="393.37,-934.11 393.16,-944.7 399.93,-936.55 393.37,-934.11"/>
<text text-anchor="middle" x="419.47" y="-843.47" font-family="monospace" font-size="10.00">uses</text>
</g>
<!-- rand -->
<g id="node29" class="node">
<title>rand</title>
<polygon fill="#5397c8" stroke="black" points="54.26,-569.78 54.26,-607.78 155.26,-607.78 155.26,-569.78 54.26,-569.78"/>
<text text-anchor="middle" x="104.76" y="-595.78" font-family="monospace" font-size="10.00">external crate</text>
<polyline fill="none" stroke="black" points="54.26,-588.78 155.26,-588.78 "/>
<text text-anchor="middle" x="104.76" y="-576.78" font-family="monospace" font-size="10.00">rand</text>
</g>
<!-- ddos&#45;&gt;rand -->
<g id="edge31" class="edge">
<title>ddos&#45;&gt;rand</title>
<path fill="none" stroke="#7f7f7f" d="M447.18,-716.49C388.07,-694.44 246.6,-641.68 165.19,-611.32"/>
<polygon fill="#7f7f7f" stroke="#7f7f7f" points="166.17,-607.94 155.57,-607.73 163.72,-614.5 166.17,-607.94"/>
<text text-anchor="middle" x="293.69" y="-666.9" font-family="monospace" font-size="10.00">uses</text>
</g>
<!-- ddos::kdd_schema&#45;&gt;ddos::kdd_schema::KDDRecord -->
<g id="edge2" class="edge">
<title>ddos::kdd_schema&#45;&gt;ddos::kdd_schema::KDDRecord</title>
<path fill="none" stroke="#000000" d="M459.8,-344.3C453.83,-345.95 447.7,-347.63 441.55,-349.33"/>
<polygon fill="#000000" stroke="#000000" points="440.6,-345.96 431.89,-351.99 442.46,-352.71 440.6,-345.96"/>
<text text-anchor="middle" x="438.17" y="-338.82" font-family="monospace" font-size="10.00">owns</text>
</g>
<!-- ddos::kdd_schema&#45;&gt;ddos::kdd_schema::KDDRecordWithLable -->
<g id="edge3" class="edge">
<title>ddos::kdd_schema&#45;&gt;ddos::kdd_schema::KDDRecordWithLable</title>
<path fill="none" stroke="#000000" d="M502.29,-347.64C473.37,-385.73 408.23,-471.52 374.78,-515.58"/>
<polygon fill="#000000" stroke="#000000" points="371.99,-513.47 368.73,-523.55 377.56,-517.71 371.99,-513.47"/>
<text text-anchor="middle" x="426.04" y="-434.61" font-family="monospace" font-size="10.00">owns</text>
</g>
<!-- ddos::kdd_schema&#45;&gt;ddos::kdd_schema::Label -->
<g id="edge4" class="edge">
<title>ddos::kdd_schema&#45;&gt;ddos::kdd_schema::Label</title>
<path fill="none" stroke="#000000" d="M528.09,-347.86C548.79,-382.85 592.68,-457.06 616.65,-497.58"/>
<polygon fill="#000000" stroke="#000000" points="613.76,-499.57 621.87,-506.4 619.79,-496.01 613.76,-499.57"/>
<text text-anchor="middle" x="559.87" y="-425.72" font-family="monospace" font-size="10.00">owns</text>
</g>
<!-- ddos::kdd_schema&#45;&gt;nalgebra -->
<g id="edge5" class="edge">
<title>ddos::kdd_schema&#45;&gt;nalgebra</title>
<path fill="none" stroke="#7f7f7f" d="M483.12,-347.69C430.11,-377.76 327.14,-436.16 268.97,-469.16"/>
<polygon fill="#7f7f7f" stroke="#7f7f7f" points="267,-466.25 260.03,-474.22 270.46,-472.34 267,-466.25"/>
<text text-anchor="middle" x="363.55" y="-411.42" font-family="monospace" font-size="10.00">uses</text>
</g>
<!-- ddos::kdd_schema&#45;&gt;log -->
<g id="edge6" class="edge">
<title>ddos::kdd_schema&#45;&gt;log</title>
<path fill="none" stroke="#7f7f7f" d="M459.9,-342.48C407.12,-355.35 328.8,-374.44 274.93,-387.56"/>
<polygon fill="#7f7f7f" stroke="#7f7f7f" points="274.06,-384.18 265.17,-389.94 275.71,-390.98 274.06,-384.18"/>
<text text-anchor="middle" x="354.92" y="-368.02" font-family="monospace" font-size="10.00">uses</text>
</g>
<!-- ddos::kdd_schema&#45;&gt;serde -->
<g id="edge7" class="edge">
<title>ddos::kdd_schema&#45;&gt;serde</title>
<path fill="none" stroke="#7f7f7f" d="M551.92,-347.69C595.78,-371.44 670.77,-412.03 718.38,-437.81"/>
<polygon fill="#7f7f7f" stroke="#7f7f7f" points="716.77,-440.92 727.23,-442.6 720.1,-434.76 716.77,-440.92"/>
<text text-anchor="middle" x="622.65" y="-395.75" font-family="monospace" font-size="10.00">uses</text>
</g>
<!-- ddos::kdd_schema&#45;&gt;serde_derive -->
<g id="edge8" class="edge">
<title>ddos::kdd_schema&#45;&gt;serde_derive</title>
<path fill="none" stroke="#7f7f7f" d="M514.39,-347.85C510.99,-375.97 504.61,-428.56 500.63,-461.46"/>
<polygon fill="#7f7f7f" stroke="#7f7f7f" points="497.15,-461.04 499.42,-471.39 504.1,-461.88 497.15,-461.04"/>
<text text-anchor="middle" x="495.01" y="-407.65" font-family="monospace" font-size="10.00">uses</text>
</g>
<!-- num_enum -->
<g id="node10" class="node">
<title>num_enum</title>
<polygon fill="#5397c8" stroke="black" points="624.97,-27.69 624.97,-65.69 725.97,-65.69 725.97,-27.69 624.97,-27.69"/>
<text text-anchor="middle" x="675.47" y="-53.69" font-family="monospace" font-size="10.00">external crate</text>
<polyline fill="none" stroke="black" points="624.97,-46.69 725.97,-46.69 "/>
<text text-anchor="middle" x="675.47" y="-34.69" font-family="monospace" font-size="10.00">num_enum</text>
</g>
<!-- ddos::kdd_schema&#45;&gt;num_enum -->
<g id="edge9" class="edge">
<title>ddos::kdd_schema&#45;&gt;num_enum</title>
<path fill="none" stroke="#7f7f7f" d="M527.63,-309.25C555.17,-260.34 627.57,-131.75 659.71,-74.67"/>
<polygon fill="#7f7f7f" stroke="#7f7f7f" points="662.83,-76.26 664.69,-65.83 656.73,-72.82 662.83,-76.26"/>
<text text-anchor="middle" x="581.17" y="-194.96" font-family="monospace" font-size="10.00">uses</text>
</g>
<!-- num_enum_derive -->
<g id="node11" class="node">
<title>num_enum_derive</title>
<polygon fill="#5397c8" stroke="black" points="305.63,-0.5 305.63,-38.5 412.63,-38.5 412.63,-0.5 305.63,-0.5"/>
<text text-anchor="middle" x="359.13" y="-26.5" font-family="monospace" font-size="10.00">external crate</text>
<polyline fill="none" stroke="black" points="305.63,-19.5 412.63,-19.5 "/>
<text text-anchor="middle" x="359.13" y="-7.5" font-family="monospace" font-size="10.00">num_enum_derive</text>
</g>
<!-- ddos::kdd_schema&#45;&gt;num_enum_derive -->
<g id="edge10" class="edge">
<title>ddos::kdd_schema&#45;&gt;num_enum_derive</title>
<path fill="none" stroke="#7f7f7f" d="M506.86,-309.3C480,-256.6 405.4,-110.26 373.69,-48.06"/>
<polygon fill="#7f7f7f" stroke="#7f7f7f" points="376.64,-46.15 368.98,-38.83 370.41,-49.33 376.64,-46.15"/>
<text text-anchor="middle" x="427.78" y="-181.68" font-family="monospace" font-size="10.00">uses</text>
</g>
</g>
</svg>
